<svg display="none" width="0" height="0" version="1.1" xmlns="http://www.w3.org/2000/svg" xmlns:xlink="http://www.w3.org/1999/xlink">
<defs>
<symbol id="icon-aircraft-landing" viewBox="0 0 1024 1024">
	<title>aircraft-landing</title>
	<path class="path1" d="M960.102 821.146c-4.966 13.619-42.086 51.302-308.685-44.954l-261.376-94.362c-90.982-32.819-219.034-84.429-269.21-113.51-35.123-20.326-42.803-65.638-42.803-65.638s-8.346-151.347-13.466-188.621c-5.12-37.274 4.864-43.674 40.755-25.19 22.323 11.52 95.488 131.174 126.157 182.63 77.414 19.507 146.534 38.963 178.842 48.589-13.158-87.91-37.888-252.314-46.746-303.77-8.499-49.306 28.16-27.392 28.16-27.392 16.947 9.728 50.33 33.843 61.747 51.302 77.926 119.091 188.006 337.92 196.403 354.714 45.875 14.336 116.582 37.53 158.822 52.736 110.387 39.885 158.054 155.341 151.398 173.466z"></path>
</symbol>
<symbol id="icon-email" viewBox="0 0 1024 1024">
	<title>email</title>
	<path class="path1" d="M459.989 609.024l-33.323 329.643 203.52-251.435 194.731 87.893 199.083-689.792-564.011 523.691zM1024 85.333l-1024 420.907 241.749 48.427 184.917 384-133.333-384 730.667-469.333z"></path>
</symbol>
</defs>
</svg>
